<?xml version="1.0" encoding="utf-8"?>
<!-- Generator: Adobe Illustrator 16.0.0, SVG Export Plug-In . SVG Version: 6.00 Build 0)  -->
<!DOCTYPE svg PUBLIC "-//W3C//DTD SVG 1.1//EN" "http://www.w3.org/Graphics/SVG/1.1/DTD/svg11.dtd">
<svg version="1.1" id="Layer_1" xmlns="http://www.w3.org/2000/svg" xmlns:xlink="http://www.w3.org/1999/xlink" x="0px" y="0px"
	 width="64px" height="64px" viewBox="-650.5 416.5 64 64" enable-background="new -650.5 416.5 64 64" xml:space="preserve">
<g transform="matrix(0.1 0 0 -0.1 0 300)">
	<g transform="matrix(0.1 0 0 -0.1 0 300)">
		<path fill="#FFD700" d="M-61869.129,20744.625c-6.301-27.148-24.902-179.98-43.652-339.648
			c-18.652-159.277-51.855-442.773-74.758-631.055c-22.801-188.477-47.801-385.352-54.004-439.063
			c-6.152-55.859-16.699-99.121-22.852-99.121c-6.199,0-56.004,37.207-110.105,82.52c-54.102,45.703-103.711,82.91-107.961,82.91
			c-6.297,0-18.652-31.25-24.949-66.309c-8.301-37.207-28.957-103.516-45.559-144.727l-31.297-76.855l-85.156,33.008
			c-47.656,21.094-110.012,47.852-139.063,62.305l-51.953,27.148l-18.652-147.07c-14.602-122.07-22.902-142.871-52.004-132.617
			c-33.203,12.5-191.063,117.871-573.145,385.156c-114.207,78.516-226.465,155.273-249.266,167.383
			c-49.855,27.148-76.855,68.359,297.07-440.625c151.609-206.934,269.969-380.957,263.719-387.305
			c-6.199-6.055-66.504-16.504-134.961-20.508c-141.355-10.254-141.355-10.254-51.902-188.477
			c56.102-107.422,53.855-111.426-118.41-175.879c-56.055-20.41-99.754-43.457-99.754-51.66c0-8.398,26.953-45.703,62.305-84.863
			c110.156-130.371,114.207-128.418-332.227-175.879c-166.262-16.602-473.633-49.805-685.449-74.707
			c-211.867-22.754-409.082-43.457-440.188-45.41c-151.66-4.297-20.898-29.199,350.832-72.266
			c629.344-70.703,1084.227-126.66,1150.684-145.313l60.203-14.258l-83.105-101.563c-47.656-55.957-76.855-107.617-68.504-115.82
			c8.301-8.398,70.652-31.055,137.012-51.66c66.602-20.801,118.504-49.707,118.504-64.355c0-14.551-22.852-78.516-51.902-140.625
			c-29.199-62.305-52.004-118.164-52.004-124.121c0-6.543,60.207-12.598,132.961-12.598c74.754,0,141.258-8.203,147.41-20.508
			c6.25-10.547-31.199-86.914-85.105-169.922c-54.102-82.813-205.664-312.5-334.473-511.426
			c-130.762-196.387-232.57-362.207-228.418-366.309c4.102-4.004,76.805,49.805,162.012,122.266
			c87.254,70.215,195.215,159.375,242.969,198.828c47.801,39.258,178.563,142.676,288.719,231.641
			c110.012,88.965,207.766,157.227,218.117,151.172c8.301-6.25,16.602-35.156,18.602-66.211c2.148-31.25,8.352-76.66,14.602-101.563
			l14.5-43.164l124.563,57.813c68.555,33.105,130.859,59.961,139.258,62.012c8.301,0,35.156-55.957,60.156-124.121
			c24.949-68.359,51.953-130.469,62.402-134.668c8.301-6.25,54.102,22.852,103.809,64.16
			c70.703,58.203,91.258,66.309,103.711,43.555c16.699-27.051,60.352-387.109,141.406-1146.875
			c49.805-471.875,60.254-469.727,116.211,25c18.652,159.375,52.051,442.969,74.707,631.25
			c22.949,188.281,47.852,385.156,54.102,441.016c6.25,53.711,16.602,97.168,22.754,97.168c6.445,0,56.055-37.207,109.961-82.617
			c54.102-45.703,104.102-82.91,108.398-82.91c6.055,0,18.555,31.055,24.512,66.211c8.691,37.207,29.102,103.516,45.898,144.727
			l31.25,76.953l85.059-33.203c47.656-20.898,109.863-47.656,138.965-62.305c50-24.609,52.246-22.656,70.898,41.406
			c47.656,182.129,10.352,192.773,375.977-109.766c182.715-150.879,350.879-289.648,371.484-308.398
			c45.605-39.258,21.094,8.398-282.129,511.328c-112.402,186.426-203.809,345.703-203.809,356.055
			c0,18.75,180.664,62.109,261.914,62.109c59.961,0,57.91,25-23.047,184.375c-56.152,107.422-53.906,111.426,120.508,175.781
			c54.102,20.703,97.656,43.457,97.656,51.758s-27.148,45.703-62.402,84.961c-110.059,130.371-114.063,128.32,332.227,175.781
			c166.309,16.602,473.535,49.805,685.449,74.609c212.109,22.852,409.375,43.555,442.578,45.41
			c149.316,4.395,18.652,29.199-353.223,72.559c-629.199,70.313-1083.984,126.367-1150.781,145.02l-59.961,14.551l83.008,101.27
			c47.656,56.055,76.758,107.91,68.457,115.82c-8.301,8.496-70.508,31.152-134.863,51.855
			c-68.652,20.703-120.508,49.609-120.508,64.258c0,14.453,22.656,78.613,51.855,140.625
			c29.102,62.305,52.051,118.066,52.051,124.121c0,6.543-50.098,12.598-112.207,12.598c-62.402,0-118.555,8.301-126.465,20.703
			c-6.641,10.449,89.16,161.426,213.77,335.449c124.512,173.73,243.066,343.555,263.672,376.758
			c39.551,59.863,39.551,59.863,0,37.109c-22.656-14.551-203.32-132.617-400.684-262.793
			c-396.777-263.086-367.676-258.789-407.129-49.609l-23.047,117.48l-124.414-57.715c-68.652-33.203-130.859-59.766-139.16-61.914
			c-8.496,0-35.449,55.762-60.156,124.121c-25.098,68.359-52.051,130.176-62.402,134.668c-8.496,6.055-54.297-23.145-103.906-64.258
			c-70.703-58.301-91.406-66.309-103.906-43.652c-16.406,27.148-59.961,387.305-141.016,1146.973
			C-61831.777,20763.082-61848.379,20839.938-61869.129,20744.625z M-61559.656,19080.465
			c450.488-113.867,793.457-453.516,936.621-921.191c45.605-151.27,45.605-469.824,0-620.996
			c-143.164-467.773-486.133-807.422-936.621-921.289c-157.813-39.355-423.73-39.355-581.543,0
			c-450.684,113.867-793.359,453.516-936.719,921.289c-45.559,151.172-45.559,469.727,0,620.996
			c141.258,463.672,483.984,803.027,926.316,918.848C-62000.086,19117.574-61713.465,19119.723-61559.656,19080.465z"/>
	</g>
</g>
</svg>
